<svg width="100" height="100" viewBox="0 0 100 100" fill="none" xmlns="http://www.w3.org/2000/svg">
<path d="M50 100C77.6142 100 100 77.6142 100 50C100 22.3858 77.6142 0 50 0C22.3858 0 0 22.3858 0 50C0 77.6142 22.3858 100 50 100Z" fill="url(#paint0_linear_505_5)"/>
<path d="M28.84 78.22C27.71 78.22 26.72 77.8 25.88 76.95C25.03 76.1 24.61 75.12 24.61 73.99V30.25C24.61 29.12 25.03 28.13 25.88 27.29C26.73 26.45 27.71 26.02 28.84 26.02H33.43V21.79H38.02V26.02H62.01V21.79H66.6V26.02H71.19C72.32 26.02 73.31 26.44 74.15 27.29C74.99 28.14 75.42 29.12 75.42 30.25V73.99C75.42 75.12 75 76.11 74.15 76.95C73.3 77.79 72.32 78.22 71.19 78.22H28.84ZM28.84 73.99H71.17V43.65H28.84V73.99ZM28.84 39.42H71.17V30.25H28.84V39.42ZM50 55.65C49.2 55.65 48.53 55.38 47.99 54.84C47.45 54.3 47.18 53.63 47.18 52.83C47.18 52.03 47.45 51.36 47.99 50.82C48.53 50.28 49.2 50.01 50 50.01C50.8 50.01 51.47 50.28 52.01 50.82C52.55 51.36 52.82 52.03 52.82 52.83C52.82 53.63 52.55 54.3 52.01 54.84C51.47 55.38 50.8 55.65 50 55.65ZM38.71 55.65C37.91 55.65 37.24 55.38 36.7 54.84C36.16 54.3 35.89 53.63 35.89 52.83C35.89 52.03 36.16 51.36 36.7 50.82C37.24 50.28 37.91 50.01 38.71 50.01C39.51 50.01 40.18 50.28 40.72 50.82C41.26 51.36 41.53 52.03 41.53 52.83C41.53 53.63 41.26 54.3 40.72 54.84C40.18 55.38 39.51 55.65 38.71 55.65ZM61.29 55.65C60.49 55.65 59.82 55.38 59.28 54.84C58.74 54.3 58.47 53.63 58.47 52.83C58.47 52.03 58.74 51.36 59.28 50.82C59.82 50.28 60.49 50.01 61.29 50.01C62.09 50.01 62.76 50.28 63.3 50.82C63.84 51.36 64.11 52.03 64.11 52.83C64.11 53.63 63.84 54.3 63.3 54.84C62.76 55.38 62.09 55.65 61.29 55.65ZM50 66.94C49.2 66.94 48.53 66.67 47.99 66.13C47.45 65.59 47.18 64.92 47.18 64.12C47.18 63.32 47.45 62.65 47.99 62.11C48.53 61.57 49.2 61.3 50 61.3C50.8 61.3 51.47 61.57 52.01 62.11C52.55 62.65 52.82 63.32 52.82 64.12C52.82 64.92 52.55 65.59 52.01 66.13C51.47 66.67 50.8 66.94 50 66.94ZM38.71 66.94C37.91 66.94 37.24 66.67 36.7 66.13C36.16 65.59 35.89 64.92 35.89 64.12C35.89 63.32 36.16 62.65 36.7 62.11C37.24 61.57 37.91 61.3 38.71 61.3C39.51 61.3 40.18 61.57 40.72 62.11C41.26 62.65 41.53 63.32 41.53 64.12C41.53 64.92 41.26 65.59 40.72 66.13C40.18 66.67 39.51 66.94 38.71 66.94ZM61.29 66.94C60.49 66.94 59.82 66.67 59.28 66.13C58.74 65.59 58.47 64.92 58.47 64.12C58.47 63.32 58.74 62.65 59.28 62.11C59.82 61.57 60.49 61.3 61.29 61.3C62.09 61.3 62.76 61.57 63.3 62.11C63.84 62.65 64.11 63.32 64.11 64.12C64.11 64.92 63.84 65.59 63.3 66.13C62.76 66.67 62.09 66.94 61.29 66.94Z" fill="white"/>
<defs>
<linearGradient id="paint0_linear_505_5" x1="0" y1="50" x2="100" y2="50" gradientUnits="userSpaceOnUse">
<stop stop-color="#5AAEF9"/>
<stop offset="1" stop-color="#5AAEF9"/>
</linearGradient>
</defs>
</svg>
