<svg width="519" height="100" viewBox="0 0 519 100" fill="none" xmlns="http://www.w3.org/2000/svg">
<g clip-path="url(#clip0_505_2)">
<path d="M50 100C77.6142 100 100 77.6142 100 50C100 22.3858 77.6142 0 50 0C22.3858 0 0 22.3858 0 50C0 77.6142 22.3858 100 50 100Z" fill="url(#paint0_linear_505_2)"/>
<path d="M28.84 78.22C27.71 78.22 26.72 77.8 25.88 76.95C25.03 76.1 24.61 75.12 24.61 73.99V30.25C24.61 29.12 25.03 28.13 25.88 27.29C26.73 26.45 27.71 26.02 28.84 26.02H33.43V21.79H38.02V26.02H62.01V21.79H66.6V26.02H71.19C72.32 26.02 73.31 26.44 74.15 27.29C74.99 28.14 75.42 29.12 75.42 30.25V73.99C75.42 75.12 75 76.11 74.15 76.95C73.3 77.79 72.32 78.22 71.19 78.22H28.84ZM28.84 73.99H71.17V43.65H28.84V73.99ZM28.84 39.42H71.17V30.25H28.84V39.42ZM50 55.65C49.2 55.65 48.53 55.38 47.99 54.84C47.45 54.3 47.18 53.63 47.18 52.83C47.18 52.03 47.45 51.36 47.99 50.82C48.53 50.28 49.2 50.01 50 50.01C50.8 50.01 51.47 50.28 52.01 50.82C52.55 51.36 52.82 52.03 52.82 52.83C52.82 53.63 52.55 54.3 52.01 54.84C51.47 55.38 50.8 55.65 50 55.65ZM38.71 55.65C37.91 55.65 37.24 55.38 36.7 54.84C36.16 54.3 35.89 53.63 35.89 52.83C35.89 52.03 36.16 51.36 36.7 50.82C37.24 50.28 37.91 50.01 38.71 50.01C39.51 50.01 40.18 50.28 40.72 50.82C41.26 51.36 41.53 52.03 41.53 52.83C41.53 53.63 41.26 54.3 40.72 54.84C40.18 55.38 39.51 55.65 38.71 55.65ZM61.29 55.65C60.49 55.65 59.82 55.38 59.28 54.84C58.74 54.3 58.47 53.63 58.47 52.83C58.47 52.03 58.74 51.36 59.28 50.82C59.82 50.28 60.49 50.01 61.29 50.01C62.09 50.01 62.76 50.28 63.3 50.82C63.84 51.36 64.11 52.03 64.11 52.83C64.11 53.63 63.84 54.3 63.3 54.84C62.76 55.38 62.09 55.65 61.29 55.65ZM50 66.94C49.2 66.94 48.53 66.67 47.99 66.13C47.45 65.59 47.18 64.92 47.18 64.12C47.18 63.32 47.45 62.65 47.99 62.11C48.53 61.57 49.2 61.3 50 61.3C50.8 61.3 51.47 61.57 52.01 62.11C52.55 62.65 52.82 63.32 52.82 64.12C52.82 64.92 52.55 65.59 52.01 66.13C51.47 66.67 50.8 66.94 50 66.94ZM38.71 66.94C37.91 66.94 37.24 66.67 36.7 66.13C36.16 65.59 35.89 64.92 35.89 64.12C35.89 63.32 36.16 62.65 36.7 62.11C37.24 61.57 37.91 61.3 38.71 61.3C39.51 61.3 40.18 61.57 40.72 62.11C41.26 62.65 41.53 63.32 41.53 64.12C41.53 64.92 41.26 65.59 40.72 66.13C40.18 66.67 39.51 66.94 38.71 66.94ZM61.29 66.94C60.49 66.94 59.82 66.67 59.28 66.13C58.74 65.59 58.47 64.92 58.47 64.12C58.47 63.32 58.74 62.65 59.28 62.11C59.82 61.57 60.49 61.3 61.29 61.3C62.09 61.3 62.76 61.57 63.3 62.11C63.84 62.65 64.11 63.32 64.11 64.12C64.11 64.92 63.84 65.59 63.3 66.13C62.76 66.67 62.09 66.94 61.29 66.94Z" fill="white"/>
<path d="M187.01 82.64H174.53L167.71 66.42H135.93L129.02 82.64H116.92L146.49 14.96H157.43L187 82.64H187.01ZM151.78 29.07L140.26 55.95H163.4L151.78 29.07Z" fill="url(#paint1_linear_505_2)"/>
<path d="M232.7 91.95C227.96 96.11 221.24 98.19 212.54 98.19C203.84 98.19 196.54 96.17 189.88 92.14L194.2 83.4C196.89 85.06 199.7 86.38 202.65 87.34C205.59 88.3 208.79 88.78 212.25 88.78C217.43 88.78 221.4 87.46 224.15 84.83C226.9 82.19 228.28 78.3 228.28 73.16V69.21C226.17 71.99 223.7 74.25 220.89 76C218.07 77.75 214.59 78.62 210.43 78.62C207.42 78.62 204.54 78.09 201.79 77.04C199.04 75.99 196.59 74.43 194.45 72.38C192.31 70.33 190.59 67.84 189.31 64.89C188.03 61.95 187.39 58.59 187.39 54.81C187.39 51.03 188.03 47.67 189.31 44.73C190.59 41.79 192.3 39.29 194.45 37.24C196.59 35.19 199.06 33.63 201.84 32.54C204.62 31.45 207.49 30.91 210.43 30.91C214.72 30.91 218.25 31.77 221.04 33.48C223.82 35.19 226.21 37.24 228.19 39.63V31.96H239.81V72.28C239.81 81.24 237.44 87.8 232.71 91.96L232.7 91.95ZM227.18 49.03C226.38 47.28 225.31 45.8 223.96 44.6C222.62 43.39 221.03 42.45 219.21 41.79C217.39 41.12 215.48 40.79 213.5 40.79C211.52 40.79 209.56 41.12 207.84 41.79C206.11 42.46 204.59 43.39 203.28 44.6C201.97 45.81 200.94 47.27 200.21 48.99C199.47 50.71 199.11 52.61 199.11 54.71C199.11 56.81 199.49 58.71 200.26 60.43C201.03 62.15 202.05 63.62 203.33 64.86C204.61 66.1 206.13 67.05 207.89 67.72C209.65 68.39 211.52 68.72 213.51 68.72C215.5 68.72 217.4 68.39 219.22 67.72C221.04 67.05 222.63 66.1 223.97 64.86C225.31 63.62 226.39 62.16 227.19 60.47C227.99 58.79 228.39 56.89 228.39 54.8C228.39 52.71 227.99 50.78 227.19 49.03H227.18Z" fill="url(#paint2_linear_505_2)"/>
<path d="M263.33 70.98C265.95 73.19 269.15 74.29 272.93 74.29C275.81 74.29 278.31 73.78 280.42 72.75C282.53 71.73 284.61 70.22 286.66 68.24L293.48 74.29C291.05 77.17 288.15 79.47 284.79 81.2C281.43 82.93 277.41 83.79 272.74 83.79C269.09 83.79 265.68 83.15 262.52 81.87C259.35 80.59 256.6 78.8 254.26 76.49C251.92 74.19 250.08 71.42 248.74 68.19C247.4 64.96 246.72 61.36 246.72 57.39C246.72 53.74 247.33 50.32 248.54 47.12C249.75 43.92 251.47 41.12 253.68 38.72C255.89 36.32 258.5 34.42 261.5 33.01C264.51 31.6 267.84 30.9 271.48 30.9C275.51 30.9 279.05 31.64 282.09 33.11C285.13 34.58 287.66 36.57 289.67 39.06C291.69 41.56 293.21 44.47 294.23 47.8C295.25 51.13 295.77 54.62 295.77 58.26C295.77 58.77 295.75 59.28 295.72 59.8C295.69 60.31 295.64 60.86 295.58 61.43H258.33C259.03 65.59 260.7 68.77 263.32 70.98H263.33ZM284.26 53.75C284.07 51.89 283.65 50.15 283.01 48.52C282.37 46.89 281.51 45.48 280.42 44.3C279.33 43.12 278.04 42.17 276.53 41.47C275.03 40.77 273.31 40.41 271.39 40.41C267.81 40.41 264.85 41.64 262.51 44.11C260.17 46.57 258.75 49.79 258.24 53.76H284.26V53.75Z" fill="url(#paint3_linear_505_2)"/>
<path d="M314.4 82.64H302.69V31.95H314.4V39.9C315.23 38.67 316.14 37.53 317.13 36.46C318.12 35.4 319.27 34.44 320.58 33.6C321.89 32.76 323.33 32.1 324.89 31.61C326.45 31.13 328.22 30.88 330.2 30.88C335.94 30.88 340.38 32.64 343.51 36.16C346.64 39.68 348.2 44.42 348.2 50.37V82.63H336.49V53.9C336.49 49.94 335.55 46.89 333.68 44.75C331.81 42.61 329.16 41.54 325.73 41.54C322.3 41.54 319.64 42.64 317.55 44.84C315.46 47.04 314.41 50.12 314.41 54.08V82.62L314.4 82.64Z" fill="url(#paint4_linear_505_2)"/>
<path d="M395.52 82.64V74.19C393.67 76.81 391.35 79.05 388.57 80.91C385.79 82.77 382.36 83.69 378.28 83.69C375.28 83.69 372.37 83.11 369.56 81.96C366.75 80.81 364.26 79.1 362.09 76.82C359.92 74.55 358.16 71.78 356.82 68.52C355.48 65.26 354.81 61.51 354.81 57.29C354.81 53.07 355.46 49.32 356.77 46.06C358.08 42.8 359.82 40.03 361.99 37.76C364.16 35.49 366.67 33.78 369.51 32.62C372.35 31.47 375.27 30.89 378.27 30.89C382.42 30.89 385.87 31.79 388.61 33.58C391.36 35.37 393.65 37.45 395.51 39.82V12.56H407.22V82.64H395.51H395.52ZM394.52 50.58C393.72 48.6 392.65 46.88 391.31 45.44C389.97 44 388.41 42.9 386.62 42.13C384.83 41.36 382.98 40.98 381.07 40.98C379.16 40.98 377.23 41.35 375.47 42.08C373.72 42.82 372.17 43.89 370.83 45.3C369.49 46.71 368.44 48.42 367.67 50.44C366.91 52.46 366.52 54.74 366.52 57.3C366.52 59.86 366.9 62.05 367.67 64.07C368.44 66.09 369.49 67.8 370.83 69.21C372.17 70.62 373.72 71.71 375.47 72.47C377.22 73.24 379.09 73.62 381.07 73.62C383.05 73.62 384.83 73.24 386.62 72.47C388.41 71.7 389.97 70.6 391.31 69.16C392.65 67.72 393.72 66.01 394.52 64.02C395.32 62.04 395.72 59.8 395.72 57.3C395.72 54.8 395.32 52.56 394.52 50.58Z" fill="url(#paint5_linear_505_2)"/>
<path d="M417.12 24.18V13.14H429.7V24.18H417.12ZM417.6 82.64V31.95H429.31V82.64H417.6Z" fill="url(#paint6_linear_505_2)"/>
<path d="M467.13 32.34V41.94H453.88V82.64H442.17V41.94H435.74V32.24H442.17V28.59C442.17 22.96 443.52 18.78 446.24 16.06C448.95 13.34 452.81 11.98 457.82 11.98C459.87 11.98 461.63 12.11 463.1 12.36C464.57 12.62 465.95 12.94 467.23 13.32V23.11C466.08 22.73 464.97 22.42 463.92 22.2C462.86 21.98 461.7 21.86 460.42 21.86C455.94 21.86 453.7 24.42 453.7 29.54V32.32H467.14L467.13 32.34Z" fill="url(#paint7_linear_505_2)"/>
<path d="M497.95 84.08C496.93 86.7 495.87 88.91 494.78 90.7C493.69 92.49 492.48 93.95 491.13 95.07C489.79 96.19 488.31 97.01 486.71 97.52C485.11 98.03 483.29 98.29 481.24 98.29C478.81 98.29 476.65 98.01 474.76 97.47C472.87 96.92 471.03 96.16 469.24 95.19L473.18 86.48C474.27 87.06 475.37 87.52 476.49 87.87C477.61 88.22 478.78 88.4 479.99 88.4C481.65 88.4 483.03 87.98 484.12 87.15C485.21 86.32 486.23 84.78 487.19 82.55L466.07 31.95H478.45L492.85 69.58L506 31.95H518.1L497.94 84.08H497.95Z" fill="url(#paint8_linear_505_2)"/>
</g>
<defs>
<linearGradient id="paint0_linear_505_2" x1="0" y1="50" x2="100" y2="50" gradientUnits="userSpaceOnUse">
<stop stop-color="#5AAEF9"/>
<stop offset="1" stop-color="#5AAEF9"/>
</linearGradient>
<linearGradient id="paint1_linear_505_2" x1="116.93" y1="55.14" x2="518.11" y2="55.14" gradientUnits="userSpaceOnUse">
<stop stop-color="#5AAEF9"/>
<stop offset="1" stop-color="#5AAEF9"/>
</linearGradient>
<linearGradient id="paint2_linear_505_2" x1="116.93" y1="55.14" x2="518.11" y2="55.14" gradientUnits="userSpaceOnUse">
<stop stop-color="#5AAEF9"/>
<stop offset="1" stop-color="#5AAEF9"/>
</linearGradient>
<linearGradient id="paint3_linear_505_2" x1="116.93" y1="55.14" x2="518.11" y2="55.14" gradientUnits="userSpaceOnUse">
<stop stop-color="#5AAEF9"/>
<stop offset="1" stop-color="#5AAEF9"/>
</linearGradient>
<linearGradient id="paint4_linear_505_2" x1="116.93" y1="55.14" x2="518.11" y2="55.14" gradientUnits="userSpaceOnUse">
<stop stop-color="#5AAEF9"/>
<stop offset="1" stop-color="#5AAEF9"/>
</linearGradient>
<linearGradient id="paint5_linear_505_2" x1="116.93" y1="55.14" x2="518.11" y2="55.14" gradientUnits="userSpaceOnUse">
<stop stop-color="#5AAEF9"/>
<stop offset="1" stop-color="#5AAEF9"/>
</linearGradient>
<linearGradient id="paint6_linear_505_2" x1="116.93" y1="55.14" x2="518.11" y2="55.14" gradientUnits="userSpaceOnUse">
<stop stop-color="#5AAEF9"/>
<stop offset="1" stop-color="#5AAEF9"/>
</linearGradient>
<linearGradient id="paint7_linear_505_2" x1="116.93" y1="55.14" x2="518.11" y2="55.14" gradientUnits="userSpaceOnUse">
<stop stop-color="#5AAEF9"/>
<stop offset="1" stop-color="#5AAEF9"/>
</linearGradient>
<linearGradient id="paint8_linear_505_2" x1="116.93" y1="55.14" x2="518.11" y2="55.14" gradientUnits="userSpaceOnUse">
<stop stop-color="#5AAEF9"/>
<stop offset="1" stop-color="#5AAEF9"/>
</linearGradient>
<clipPath id="clip0_505_2">
<rect width="518.11" height="100" fill="white"/>
</clipPath>
</defs>
</svg>
